<?xml version="1.0" standalone="no"?>
<!DOCTYPE svg PUBLIC "-//W3C//DTD SVG 20010904//EN"
 "http://www.w3.org/TR/2001/REC-SVG-20010904/DTD/svg10.dtd">
<svg version="1.0" xmlns="http://www.w3.org/2000/svg"
 width="700.000000pt" height="700.000000pt" viewBox="0 0 700.000000 700.000000"
 preserveAspectRatio="xMidYMid meet">
<metadata>
Created by potrace 1.11, written by Peter Selinger 2001-2013
</metadata>
<g transform="translate(0.000000,700.000000) scale(0.100000,-0.100000)"
fill="#000000" stroke="none">
<path d="M3215 6989 c-985 -90 -1847 -550 -2452 -1309 -416 -521 -659 -1112
-745 -1810 -17 -139 -17 -592 0 -735 84 -704 328 -1290 766 -1840 105 -132
383 -408 521 -519 764 -609 1718 -873 2680 -740 765 106 1498 481 2036 1042
754 787 1095 1854 938 2937 -148 1027 -762 1945 -1663 2488 -421 254 -880 410
-1391 473 -145 18 -552 26 -690 13z m-1425 -1435 c66 -36 3750 -3724 3775
-3779 99 -217 -123 -439 -340 -340 -49 22 -3733 3697 -3772 3763 -53 89 -53
175 1 264 32 55 110 112 165 121 49 9 126 -4 171 -29z m1277 -32 c91 -47 153
-162 138 -259 -7 -49 -213 -473 -248 -510 -12 -14 -32 -23 -51 -23 -25 0 -53
24 -183 152 -137 136 -153 156 -153 186 0 49 157 356 209 406 76 74 197 94
288 48z m2855 16 c50 -15 122 -78 151 -132 16 -31 21 -58 21 -111 l-1 -70
-601 -1203 c-641 -1280 -615 -1233 -677 -1218 -32 8 -325 309 -325 334 0 24
1117 2265 1153 2314 58 79 179 116 279 86z m-3675 -1387 c95 -79 252 -247 259
-277 6 -23 -78 -198 -557 -1157 -310 -621 -576 -1146 -590 -1166 -14 -20 -50
-49 -80 -66 -46 -25 -65 -30 -124 -30 -52 1 -80 6 -111 22 -94 50 -154 162
-139 261 10 69 1197 2440 1228 2452 40 16 55 11 114 -39z m2034 -2038 c100
-100 149 -155 149 -170 0 -11 -35 -99 -77 -194 -93 -207 -140 -266 -232 -293
-68 -20 -84 -20 -150 0 -112 33 -193 159 -176 272 8 51 235 517 257 525 7 3
28 6 46 6 31 1 49 -14 183 -146z"/>
</g>
</svg>
