<svg xmlns="http://www.w3.org/2000/svg" viewBox="0 0 41.17 41.17"><defs><style>.cls-1{fill:#f78d1e;}.cls-2{fill:#fff;}</style></defs><title>logo</title><g id="Layer_2" data-name="Layer 2"><g id="Layer_1-2" data-name="Layer 1"><circle class="cls-1" cx="20.58" cy="20.58" r="20.58"/><path class="cls-2" d="M16.76,13.22a.46.46,0,0,0,.74-.12l1.21-2.4a1.51,1.51,0,0,0-.91-2.11A1.55,1.55,0,0,0,16,9.43l-.86,1.71a.46.46,0,0,0,.09.54Z"/><path class="cls-2" d="M13.08,16.61a.47.47,0,0,0-.75.13L5.46,30.47a1.51,1.51,0,0,0,1.15,2.16,1.54,1.54,0,0,0,1.57-.87l6.53-13.07a.47.47,0,0,0-.09-.54Z"/><path class="cls-2" d="M34.56,8.53A1.55,1.55,0,0,0,33,9.41L26.46,22.48a.46.46,0,0,0,.09.53l1.54,1.54a.46.46,0,0,0,.75-.12L35.71,10.7A1.51,1.51,0,0,0,34.56,8.53Z"/><path class="cls-2" d="M24.41,28a.46.46,0,0,0-.75.12l-1.2,2.4a1.51,1.51,0,0,0,.91,2.11,1.55,1.55,0,0,0,1.81-.84L26,30a.46.46,0,0,0-.09-.54Z"/><path class="cls-2" d="M10.81,8.68a1.51,1.51,0,0,0-2.13,2.13L30.36,32.48a1.5,1.5,0,0,0,2.12-2.12Z"/></g></g></svg>