<svg xmlns="http://www.w3.org/2000/svg" viewBox="0 0 35.65 36.56"><defs><style>.cls-1{fill:#231f20;}</style></defs><title>icon_lock</title><g id="Layer_2" data-name="Layer 2"><g id="Layer_1-2" data-name="Layer 1"><path class="cls-1" d="M33.76,16.32a1.88,1.88,0,0,1-1.88-1.88V13.08C31.88,5.87,25.57,0,17.82,0s-14,5.87-14,13.08v1.36a1.89,1.89,0,0,1-1.89,1.88h0A1.89,1.89,0,0,0,0,18.21V32.38a4.18,4.18,0,0,0,4.18,4.18H31.47a4.18,4.18,0,0,0,4.18-4.18V18.21a1.89,1.89,0,0,0-1.89-1.89Zm-14,11.46v4a.74.74,0,0,1-.74.74H16.63a.74.74,0,0,1-.75-.74v-4a1.72,1.72,0,0,0-.55-1.24,3.61,3.61,0,1,1,5,0A1.7,1.7,0,0,0,19.76,27.78ZM25,16.32H10.65a1.88,1.88,0,0,1-1.88-1.88V13.08C8.77,8.62,12.83,5,17.82,5s9.06,3.62,9.06,8.08v1.36A1.88,1.88,0,0,1,25,16.32Z"/></g></g></svg>